<svg xmlns="http://www.w3.org/2000/svg" width="14.274" height="19.551" viewBox="0 0 14.274 19.551">
  <g id="Location_icon" data-name="Location icon" transform="translate(2200 -3493)">
    <g id="Path_17" data-name="Path 17" transform="translate(-2200 3493)" fill="none">
      <path d="M7.137,0a7.137,7.137,0,0,1,7.137,7.137c0,3.942-6.282,12.414-7.137,12.414S0,11.079,0,7.137A7.137,7.137,0,0,1,7.137,0Z" stroke="none"/>
      <path d="M 7.137051105499268 1.499994277954102 C 4.02877140045166 1.499994277954102 1.500000953674316 4.028764724731445 1.500000953674316 7.137054443359375 C 1.500000953674316 8.40926456451416 2.503790855407715 10.78682518005371 4.185131072998047 13.49702453613281 C 5.328619003295898 15.34024143218994 6.439896583557129 16.79494667053223 7.137051105499268 17.58933067321777 C 7.834205627441406 16.79494667053223 8.94548225402832 15.34024143218994 10.08897113800049 13.49702453613281 C 11.77031135559082 10.78682518005371 12.77410125732422 8.40926456451416 12.77410125732422 7.137054443359375 C 12.77410125732422 4.028764724731445 10.24533081054688 1.499994277954102 7.137051105499268 1.499994277954102 M 7.137051105499268 -5.7220458984375e-06 C 11.0787410736084 -5.7220458984375e-06 14.27410125732422 3.195363998413086 14.27410125732422 7.137054443359375 C 14.27410125732422 11.07873439788818 7.991791248321533 19.55126571655273 7.137051105499268 19.55126571655273 C 6.282310962677002 19.55126571655273 9.5367431640625e-07 11.07873439788818 9.5367431640625e-07 7.137054443359375 C 9.5367431640625e-07 3.195363998413086 3.195370674133301 -5.7220458984375e-06 7.137051105499268 -5.7220458984375e-06 Z" stroke="none" fill="#fff"/>
    </g>
    <g id="Ellipse_26" data-name="Ellipse 26" transform="translate(-2195.718 3497.282)" fill="none" stroke="#fff" stroke-width="1.5">
      <circle cx="2.855" cy="2.855" r="2.855" stroke="none"/>
      <circle cx="2.855" cy="2.855" r="2.105" fill="none"/>
    </g>
  </g>
</svg>
