<svg id="map_icon" data-name="map icon" xmlns="http://www.w3.org/2000/svg" width="20" height="27.395" viewBox="0 0 20 27.395">
  <g id="Path_17" data-name="Path 17" fill="#42df4c">
    <path d="M 10 26.56153297424316 C 9.279031753540039 25.99270439147949 7.215723991394043 23.58890724182129 4.939169883728027 19.98152160644531 C 2.27689003944397 15.76294136047363 0.75 12.12481117248535 0.75 10.00000190734863 C 0.75 4.899531364440918 4.899529933929443 0.7500014901161194 10 0.7500014901161194 C 15.1004695892334 0.7500014901161194 19.25 4.899531364440918 19.25 10.00000190734863 C 19.25 12.12481117248535 17.72311019897461 15.76294136047363 15.06083011627197 19.98152160644531 C 12.78427600860596 23.58890724182129 10.72096824645996 25.99270439147949 10 26.56153297424316 Z" stroke="none"/>
    <path d="M 10 1.500001907348633 C 5.313079833984375 1.500001907348633 1.5 5.313081741333008 1.5 10.00000190734863 C 1.5 11.91440105438232 2.970020294189453 15.41212177276611 5.432299613952637 19.35641098022461 C 7.279402732849121 22.31526184082031 9.06906795501709 24.56081008911133 10 25.53218841552734 C 10.93093204498291 24.56081008911133 12.7205982208252 22.31526184082031 14.56769943237305 19.35641098022461 C 17.02997970581055 15.41212177276611 18.5 11.91440105438232 18.5 10.00000190734863 C 18.5 5.313081741333008 14.68692016601562 1.500001907348633 10 1.500001907348633 M 10 1.9073486328125e-06 C 15.52285003662109 1.9073486328125e-06 20 4.477151870727539 20 10.00000190734863 C 20 15.52285194396973 11.19760990142822 27.39404106140137 10 27.39404106140137 C 8.802390098571777 27.39404106140137 0 15.52285194396973 0 10.00000190734863 C 0 4.477151870727539 4.477149963378906 1.9073486328125e-06 10 1.9073486328125e-06 Z" stroke="none" fill="#42df4c"/>
  </g>
  <circle id="Ellipse_26" data-name="Ellipse 26" cx="4" cy="4" r="4" transform="translate(6 6)" fill="#333"/>
</svg>
