<?xml version="1.0" encoding="UTF-8"?>
<svg id="Layer_1" data-name="Layer 1" xmlns="http://www.w3.org/2000/svg" viewBox="0 0 295.55 100.57">
  <defs>
    <style>
      .cls-1 {
        fill: none;
        stroke: #ef0b0c;
        stroke-miterlimit: 10;
      }
    </style>
  </defs>
  <path class="cls-1" d="m6.45,43.88c3.06,2.43,7.52,3.64,13.37,3.64,3.53,0,6.69-.61,9.49-1.84,2.8-1.23,4.94-2.97,6.42-5.21,1.48-2.25,2.22-4.64,2.22-7.18s-.61-4.77-1.82-6.52c-1.21-1.75-2.89-3.09-5.02-4-2.13-.92-5.9-2.1-11.29-3.54-3.73-1.02-5.97-1.67-6.74-1.95-1.33-.54-2.3-1.21-2.92-2.03-.62-.79-.93-1.68-.93-2.67,0-1.55.75-2.91,2.25-4.07,1.5-1.16,4-1.74,7.5-1.74,2.97,0,5.26.65,6.88,1.95,1.62,1.3,2.61,3.11,2.94,5.42l7.46-1.02c-.48-2.91-1.36-5.23-2.63-6.97-1.27-1.74-3.24-3.11-5.91-4.13-2.67-1.02-5.77-1.53-9.3-1.53-2.34,0-4.54.3-6.59.91-2.05.61-3.66,1.35-4.85,2.22-1.58,1.13-2.83,2.55-3.75,4.26-.92,1.71-1.38,3.57-1.38,5.57,0,2.2.56,4.22,1.67,6.04,1.12,1.82,2.75,3.25,4.91,4.28,2.16,1.03,6.04,2.25,11.63,3.66,4.15,1.05,6.75,1.91,7.8,2.58,1.5.99,2.25,2.34,2.25,4.07,0,1.92-.85,3.59-2.54,5.02-1.69,1.43-4.29,2.14-7.8,2.14s-6.18-.8-8.11-2.41c-1.93-1.61-3.11-3.93-3.54-6.95l-7.54,1.19c.85,4.77,2.8,8.37,5.87,10.8Z"/>
  <path class="cls-1" d="m77.9,46.51h7.96c-.96-1.72-1.6-3.52-1.93-5.4-.32-1.88-.49-6.36-.49-13.45v-10.17c0-3.39-.13-5.73-.38-7.03-.45-2.09-1.24-3.82-2.37-5.19-1.13-1.37-2.9-2.51-5.3-3.41-2.4-.9-5.52-1.36-9.36-1.36s-7.27.53-10.21,1.59c-2.94,1.06-5.18,2.57-6.74,4.53-1.55,1.96-2.67,4.54-3.35,7.73l7.46,1.02c.82-3.19,2.08-5.42,3.79-6.67,1.71-1.26,4.36-1.89,7.94-1.89,3.84,0,6.74.86,8.68,2.58,1.44,1.27,2.16,3.46,2.16,6.57,0,.28-.01.95-.04,1.99-2.91,1.02-7.44,1.89-13.6,2.63-3.02.37-5.28.75-6.78,1.14-2.03.57-3.86,1.4-5.49,2.5-1.62,1.1-2.94,2.56-3.94,4.38-1,1.82-1.5,3.83-1.5,6.04,0,3.76,1.33,6.84,3.98,9.26,2.65,2.41,6.45,3.62,11.4,3.62,2.99,0,5.8-.49,8.41-1.48,2.61-.99,5.33-2.68,8.16-5.08.23,2.12.73,3.97,1.53,5.55h0Zm-2.16-19.78c0,3.36-.41,5.9-1.23,7.63-1.07,2.23-2.75,3.99-5.04,5.27-2.29,1.29-4.9,1.93-7.84,1.93s-5.22-.68-6.76-2.03c-1.54-1.36-2.31-3.05-2.31-5.08,0-1.33.35-2.53,1.06-3.62.71-1.09,1.71-1.91,3.01-2.48,1.3-.56,3.52-1.07,6.65-1.53,5.54-.79,9.69-1.75,12.46-2.88v2.8Z"/>
  <path class="cls-1" d="m102.89,46.51v-23.34c0-4.09.41-7.23,1.23-9.4.82-2.17,2.14-3.83,3.96-4.96,1.82-1.13,3.81-1.69,5.95-1.69,2.82,0,4.86.85,6.1,2.54,1.24,1.69,1.86,4.24,1.86,7.63v29.23h7.63v-26.14c0-4.63,1.04-8,3.14-10.1,2.09-2.1,4.72-3.16,7.88-3.16,1.75,0,3.28.41,4.58,1.23,1.3.82,2.2,1.9,2.69,3.24.49,1.34.74,3.54.74,6.59v28.34h7.58V15.62c0-5.14-1.2-8.95-3.6-11.42-2.4-2.47-5.83-3.71-10.29-3.71-5.71,0-10.34,2.63-13.9,7.88-.88-2.48-2.38-4.42-4.51-5.8-2.13-1.38-4.87-2.08-8.2-2.08-2.99,0-5.66.67-8.01,2.01-2.34,1.34-4.22,3.11-5.63,5.32V1.52h-6.82v44.99h7.63Z"/>
  <path class="cls-1" d="m197.65,99.05h7.96c-.96-1.72-1.6-3.52-1.93-5.4-.32-1.88-.49-6.36-.49-13.45v-10.17c0-3.39-.13-5.73-.38-7.03-.45-2.09-1.24-3.82-2.37-5.19-1.13-1.37-2.9-2.51-5.3-3.41-2.4-.9-5.52-1.36-9.36-1.36s-7.27.53-10.21,1.59c-2.94,1.06-5.18,2.57-6.74,4.53-1.55,1.96-2.67,4.54-3.35,7.73l7.46,1.02c.82-3.19,2.08-5.42,3.79-6.67,1.71-1.26,4.36-1.89,7.94-1.89,3.84,0,6.74.86,8.68,2.58,1.44,1.27,2.16,3.46,2.16,6.57,0,.28-.01.95-.04,1.99-2.91,1.02-7.44,1.89-13.6,2.63-3.02.37-5.28.75-6.78,1.14-2.03.57-3.86,1.4-5.49,2.5-1.62,1.1-2.94,2.56-3.94,4.38-1,1.82-1.5,3.83-1.5,6.04,0,3.76,1.33,6.84,3.98,9.26,2.65,2.41,6.45,3.62,11.4,3.62,2.99,0,5.8-.49,8.41-1.48,2.61-.99,5.33-2.68,8.16-5.08.23,2.12.73,3.97,1.53,5.55h0Zm-2.16-19.78c0,3.36-.41,5.9-1.23,7.63-1.07,2.23-2.75,3.99-5.04,5.27-2.29,1.29-4.9,1.93-7.84,1.93s-5.22-.68-6.76-2.03c-1.54-1.36-2.31-3.05-2.31-5.08,0-1.33.35-2.53,1.06-3.62.71-1.09,1.71-1.91,3.01-2.48,1.3-.56,3.52-1.07,6.65-1.53,5.54-.79,9.69-1.75,12.46-2.88v2.8Z"/>
  <path class="cls-1" d="m217.84,96.43c3.06,2.43,7.52,3.64,13.37,3.64,3.53,0,6.69-.61,9.49-1.84,2.8-1.23,4.94-2.97,6.42-5.21,1.48-2.25,2.22-4.64,2.22-7.18s-.61-4.77-1.82-6.52c-1.21-1.75-2.89-3.09-5.02-4-2.13-.92-5.9-2.1-11.29-3.54-3.73-1.02-5.97-1.67-6.74-1.95-1.33-.54-2.3-1.21-2.92-2.03-.62-.79-.93-1.68-.93-2.67,0-1.55.75-2.91,2.25-4.07,1.5-1.16,4-1.74,7.5-1.74,2.97,0,5.26.65,6.88,1.95,1.62,1.3,2.61,3.11,2.94,5.42l7.46-1.02c-.48-2.91-1.36-5.23-2.63-6.97-1.27-1.74-3.24-3.11-5.91-4.13-2.67-1.02-5.77-1.53-9.3-1.53-2.34,0-4.54.3-6.59.91-2.05.61-3.66,1.35-4.85,2.22-1.58,1.13-2.83,2.55-3.75,4.26-.92,1.71-1.38,3.57-1.38,5.57,0,2.2.56,4.22,1.67,6.04,1.12,1.82,2.75,3.25,4.91,4.28,2.16,1.03,6.04,2.25,11.63,3.66,4.15,1.05,6.75,1.91,7.8,2.58,1.5.99,2.25,2.34,2.25,4.07,0,1.92-.85,3.59-2.54,5.02-1.69,1.43-4.29,2.14-7.8,2.14s-6.18-.8-8.11-2.41c-1.93-1.61-3.11-3.93-3.54-6.95l-7.54,1.19c.85,4.77,2.8,8.37,5.87,10.8Z"/>
  <path class="cls-1" d="m266.03,99.05v-24.61c0-3.53.42-6.3,1.27-8.3.85-2.01,2.27-3.59,4.26-4.77,1.99-1.17,4.12-1.76,6.38-1.76,3.02,0,5.36.87,7.01,2.61,1.65,1.74,2.48,4.51,2.48,8.32v28.51h7.63v-28.51c0-4.41-.53-7.77-1.59-10.08-1.06-2.32-2.82-4.13-5.27-5.44-2.46-1.31-5.35-1.97-8.68-1.97-5.42,0-9.91,2.06-13.47,6.19v-22.28h-7.63v62.11h7.63Z"/>
  <path class="cls-1" d="m148.48,53.53v23.34c0,4.09-.41,7.23-1.23,9.4-.82,2.17-2.14,3.83-3.96,4.96-1.82,1.13-3.81,1.69-5.95,1.69-2.82,0-4.86-.85-6.1-2.54-1.24-1.69-1.86-4.24-1.86-7.63v-29.23h-7.63v26.14c0,4.63-1.04,8-3.13,10.1-2.09,2.1-4.72,3.16-7.88,3.16-1.75,0-3.28-.41-4.58-1.23-1.3-.82-2.2-1.9-2.69-3.24-.49-1.34-.74-3.54-.74-6.59v-28.34h-7.58v30.88c0,5.14,1.2,8.95,3.6,11.42,2.4,2.47,5.83,3.71,10.29,3.71,5.71,0,10.34-2.63,13.9-7.88.88,2.48,2.38,4.42,4.51,5.8,2.13,1.38,4.87,2.08,8.2,2.08,2.99,0,5.66-.67,8.01-2.01,2.34-1.34,4.22-3.11,5.63-5.32v6.31h6.82v-44.99h-7.63Z"/>
</svg>