<?xml version="1.0" encoding="UTF-8"?>
<svg id="Layer_1" data-name="Layer 1" xmlns="http://www.w3.org/2000/svg" viewBox="0 0 1361.12 658.85">
  <defs>
    <style>
      .cls-1 {
        fill: #fff;
      }

      .cls-2 {
        isolation: isolate;
      }
    </style>
  </defs>
  <g id="sam" class="cls-2">
    <g class="cls-2">
      <path class="cls-1" d="m64.4,219.07c0-13.28-5.01-23.59-15.01-30.95-10.01-7.35-27.45-13.68-52.33-18.99-24.88-5.31-44.62-11.69-59.23-19.12s-25.41-16.29-32.41-26.56c-7-10.27-10.49-22.49-10.49-36.66,0-23.55,9.96-43.47,29.88-59.77C-55.26,10.73-29.81,2.59,1.18,2.59c32.58,0,59.01,8.41,79.29,25.23,20.27,16.83,30.41,38.34,30.41,64.55h-49.41c0-13.46-5.71-25.06-17.13-34.8-11.42-9.74-25.81-14.61-43.16-14.61s-31.88,3.9-41.97,11.69c-10.09,7.79-15.14,17.98-15.14,30.55,0,11.87,4.69,20.81,14.08,26.83,9.38,6.02,26.34,11.78,50.87,17.27,24.52,5.49,44.4,12.04,59.63,19.66,15.23,7.62,26.52,16.78,33.87,27.49,7.35,10.72,11.02,23.77,11.02,39.18,0,25.68-10.27,46.26-30.81,61.76-20.54,15.5-47.19,23.24-79.95,23.24-23.02,0-43.39-4.08-61.09-12.22-17.71-8.14-31.57-19.52-41.57-34.13-10.01-14.61-15.01-30.41-15.01-47.41h49.14c.88,16.47,7.48,29.53,19.79,39.18,12.31,9.65,28.55,14.48,48.74,14.48,18.59,0,33.51-3.76,44.76-11.29,11.24-7.52,16.87-17.57,16.87-30.15Z"/>
      <path class="cls-1" d="m354.99,295.31c-2.83-5.67-5.14-15.76-6.91-30.28-22.84,23.73-50.12,35.59-81.81,35.59-28.33,0-51.58-8.01-69.73-24.04-18.15-16.02-27.23-36.34-27.23-60.96,0-29.92,11.38-53.17,34.13-69.73,22.75-16.56,54.76-24.84,96.02-24.84h47.81v-22.58c0-17.17-5.14-30.85-15.41-41.04-10.27-10.18-25.41-15.27-45.42-15.27-17.53,0-32.23,4.43-44.09,13.28-11.87,8.86-17.8,19.57-17.8,32.14h-49.41c0-14.34,5.09-28.2,15.27-41.57,10.18-13.37,23.99-23.95,41.44-31.74,17.44-7.79,36.61-11.69,57.51-11.69,33.11,0,59.06,8.28,77.83,24.84,18.77,16.56,28.51,39.36,29.22,68.4v132.28c0,26.39,3.36,47.37,10.09,62.95v4.25h-51.53Zm-81.55-37.45c15.41,0,30.02-3.98,43.83-11.95s23.81-18.33,30.02-31.08v-58.97h-38.52c-60.21,0-90.31,17.62-90.31,52.86,0,15.41,5.13,27.45,15.41,36.12,10.27,8.68,23.46,13.02,39.58,13.02Z"/>
      <path class="cls-1" d="m519.68,7.9l1.33,31.88c21.07-24.79,49.49-37.19,85.27-37.19,40.2,0,67.56,15.41,82.08,46.22,9.56-13.81,22-24.97,37.32-33.47,15.31-8.5,33.42-12.75,54.32-12.75,63.04,0,95.09,33.38,96.16,100.14v192.58h-49.14V105.65c0-20.54-4.69-35.9-14.08-46.09-9.39-10.18-25.15-15.27-47.28-15.27-18.24,0-33.38,5.45-45.42,16.34-12.04,10.89-19.04,25.55-20.98,43.96v190.72h-49.41V106.98c0-41.79-20.45-62.69-61.36-62.69-32.23,0-54.28,13.73-66.14,41.17v209.84h-49.14V7.9h46.48Z"/>
    </g>
  </g>
  <g id="ash" class="cls-2">
    <g class="cls-2">
      <path class="cls-1" d="m1127.96,653.31c-2.96-5.92-5.36-16.45-7.21-31.62-23.85,24.78-52.33,37.16-85.42,37.16-29.58,0-53.85-8.36-72.8-25.1-18.95-16.73-28.43-37.95-28.43-63.65,0-31.24,11.88-55.51,35.64-72.8,23.76-17.29,57.18-25.93,100.26-25.93h49.92v-23.57c0-17.93-5.36-32.21-16.09-42.85-10.73-10.63-26.53-15.95-47.43-15.95-18.3,0-33.65,4.62-46.04,13.87-12.39,9.25-18.58,20.43-18.58,33.56h-51.59c0-14.98,5.31-29.44,15.95-43.4,10.63-13.96,25.05-25,43.27-33.14,18.21-8.13,38.23-12.2,60.04-12.2,34.57,0,61.66,8.65,81.26,25.93,19.6,17.29,29.77,41.09,30.51,71.42v138.12c0,27.55,3.51,49.46,10.54,65.73v4.44h-53.8Zm-85.14-39.11c16.09,0,31.34-4.16,45.76-12.48s24.87-19.14,31.34-32.45v-61.57h-40.21c-62.87,0-94.3,18.4-94.3,55.19,0,16.09,5.36,28.66,16.09,37.72,10.72,9.06,24.5,13.59,41.32,13.59Z"/>
      <path class="cls-1" d="m1426.38,573.71c0-13.87-5.23-24.64-15.67-32.31-10.45-7.67-28.66-14.28-54.64-19.83-25.98-5.55-46.59-12.2-61.85-19.97s-26.53-17.01-33.84-27.73c-7.31-10.72-10.96-23.48-10.96-38.27,0-24.59,10.4-45.39,31.2-62.4,20.8-17.01,47.38-25.52,79.74-25.52,34.02,0,61.61,8.78,82.79,26.35,21.17,17.57,31.76,40.03,31.76,67.39h-51.59c0-14.05-5.96-26.16-17.89-36.33-11.93-10.17-26.95-15.25-45.07-15.25s-33.28,4.07-43.82,12.2c-10.54,8.14-15.81,18.77-15.81,31.89,0,12.39,4.9,21.73,14.7,28.01,9.8,6.29,27.5,12.3,53.11,18.03,25.61,5.73,46.36,12.58,62.26,20.52,15.9,7.95,27.69,17.52,35.36,28.71,7.67,11.19,11.51,24.82,11.51,40.91,0,26.81-10.73,48.31-32.17,64.48-21.45,16.18-49.28,24.27-83.48,24.27-24.04,0-45.3-4.26-63.79-12.76-18.49-8.5-32.96-20.38-43.4-35.64-10.45-15.25-15.67-31.76-15.67-49.51h51.31c.92,17.2,7.81,30.83,20.66,40.91,12.85,10.08,29.81,15.12,50.89,15.12,19.41,0,34.99-3.93,46.73-11.79,11.74-7.86,17.61-18.35,17.61-31.48Z"/>
    </g>
  </g>
  <g id="m" class="cls-2">
    <g class="cls-2">
      <path class="cls-1" d="m839.24,651.94l-1.35-32.34c-21.38,25.16-50.22,37.73-86.52,37.73-40.79,0-68.55-15.63-83.29-46.9-9.7,14.02-22.32,25.34-37.87,33.96-15.54,8.62-33.91,12.94-55.12,12.94-63.97,0-96.49-33.87-97.57-101.61v-195.41h49.86v192.45c0,20.84,4.76,36.43,14.29,46.76,9.53,10.33,25.52,15.5,47.98,15.5,18.51,0,33.87-5.53,46.09-16.58,12.22-11.05,19.32-25.92,21.29-44.61v-193.52h50.13v191.1c0,42.41,20.75,63.61,62.26,63.61,32.71,0,55.08-13.93,67.11-41.78v-212.93h49.86v291.63h-47.17Z"/>
    </g>
  </g>
</svg>