<?xml version="1.0" encoding="UTF-8"?>
<svg id="Layer_1" data-name="Layer 1" xmlns="http://www.w3.org/2000/svg" viewBox="0 0 482 163">
  <defs>
    <style>
      .cls-1 {
        fill: #ed1c24;
      }
    </style>
  </defs>
  <path class="cls-1" d="m9.63,71.02c5.01,3.98,12.31,5.96,21.88,5.96,5.78,0,10.96-1.01,15.53-3.02,4.58-2.01,8.08-4.85,10.5-8.53,2.43-3.67,3.64-7.59,3.64-11.75s-.99-7.81-2.98-10.68c-1.99-2.87-4.73-5.05-8.22-6.55-3.49-1.5-9.65-3.43-18.48-5.79-6.1-1.66-9.78-2.73-11.02-3.19-2.17-.88-3.77-1.99-4.78-3.33-1.02-1.29-1.53-2.75-1.53-4.37,0-2.54,1.22-4.76,3.67-6.66,2.45-1.89,6.54-2.84,12.27-2.84,4.85,0,8.61,1.06,11.27,3.19,2.66,2.13,4.26,5.09,4.82,8.87l12.2-1.66c-.79-4.76-2.22-8.56-4.3-11.41-2.08-2.84-5.3-5.1-9.67-6.76C40.07.85,35,.02,29.22.02c-3.84,0-7.43.5-10.78,1.49-3.35.99-6,2.21-7.94,3.64-2.59,1.85-4.63,4.17-6.14,6.97-1.5,2.8-2.25,5.84-2.25,9.12,0,3.61.91,6.9,2.74,9.88,1.83,2.98,4.51,5.32,8.04,7,3.54,1.69,9.88,3.69,19.03,6,6.79,1.71,11.05,3.12,12.76,4.23,2.45,1.62,3.67,3.84,3.67,6.66,0,3.14-1.39,5.88-4.16,8.22-2.77,2.33-7.03,3.5-12.76,3.5s-10.11-1.32-13.28-3.95c-3.17-2.63-5.1-6.42-5.79-11.37L.03,53.34c1.39,7.81,4.59,13.71,9.6,17.68Z"/>
  <path class="cls-1" d="m126.57,75.32h13.04c-1.57-2.82-2.62-5.77-3.15-8.84-.53-3.07-.8-10.41-.8-22.01v-16.64c0-5.55-.21-9.38-.62-11.51-.74-3.42-2.03-6.25-3.88-8.49-1.85-2.24-4.74-4.1-8.67-5.58C118.55.76,113.44.02,107.15.02s-11.9.87-16.71,2.6c-4.81,1.73-8.48,4.21-11.02,7.42-2.54,3.21-4.37,7.43-5.48,12.65l12.2,1.66c1.34-5.22,3.41-8.86,6.21-10.92,2.8-2.06,7.13-3.09,13-3.09,6.29,0,11.02,1.41,14.21,4.23,2.36,2.08,3.54,5.66,3.54,10.75,0,.46-.02,1.55-.07,3.26-4.76,1.66-12.18,3.1-22.26,4.3-4.95.6-8.64,1.23-11.09,1.87-3.33.93-6.32,2.29-8.98,4.09-2.66,1.8-4.81,4.19-6.45,7.18-1.64,2.98-2.46,6.27-2.46,9.88,0,6.15,2.17,11.2,6.52,15.15,4.34,3.95,10.56,5.93,18.65,5.93,4.9,0,9.49-.81,13.76-2.43,4.27-1.62,8.72-4.39,13.35-8.32.37,3.47,1.2,6.49,2.5,9.08h0Zm-3.54-32.38c0,5.5-.67,9.66-2.01,12.48-1.76,3.65-4.51,6.53-8.25,8.63-3.74,2.1-8.02,3.15-12.83,3.15s-8.54-1.11-11.06-3.33c-2.52-2.22-3.78-4.99-3.78-8.32,0-2.17.58-4.15,1.73-5.93,1.15-1.78,2.8-3.13,4.92-4.06,2.13-.92,5.75-1.76,10.89-2.5,9.06-1.29,15.85-2.87,20.38-4.71v4.58Z"/>
  <path class="cls-1" d="m167.48,75.32v-38.2c0-6.7.67-11.83,2.01-15.39,1.34-3.56,3.5-6.26,6.48-8.11,2.98-1.85,6.23-2.77,9.74-2.77,4.62,0,7.95,1.39,9.98,4.16,2.03,2.77,3.05,6.93,3.05,12.48v47.84h12.48v-42.78c0-7.58,1.71-13.09,5.13-16.54,3.42-3.44,7.72-5.17,12.9-5.17,2.87,0,5.36.67,7.49,2.01,2.13,1.34,3.59,3.11,4.4,5.3.81,2.2,1.21,5.79,1.21,10.78v46.39h12.41V24.77c0-8.41-1.97-14.64-5.89-18.69C244.95,2.04,239.33.02,232.03.02c-9.34,0-16.92,4.3-22.74,12.9-1.43-4.07-3.89-7.23-7.38-9.5-3.49-2.26-7.96-3.4-13.42-3.4-4.9,0-9.27,1.1-13.1,3.29-3.84,2.2-6.91,5.1-9.22,8.7V1.68h-11.16v73.63h12.48Z"/>
  <path class="cls-1" d="m322.57,161.32h13.04c-1.57-2.82-2.62-5.77-3.15-8.84-.53-3.07-.8-10.41-.8-22.01v-16.64c0-5.55-.21-9.38-.62-11.51-.74-3.42-2.03-6.25-3.88-8.49-1.85-2.24-4.74-4.1-8.67-5.58-3.93-1.48-9.04-2.22-15.32-2.22s-11.9.87-16.71,2.6c-4.81,1.73-8.48,4.21-11.02,7.42-2.54,3.21-4.37,7.43-5.48,12.65l12.2,1.66c1.34-5.22,3.41-8.86,6.21-10.92,2.8-2.06,7.13-3.09,13-3.09,6.29,0,11.02,1.41,14.21,4.23,2.36,2.08,3.54,5.66,3.54,10.75,0,.46-.02,1.55-.07,3.26-4.76,1.66-12.18,3.1-22.26,4.3-4.95.6-8.64,1.23-11.09,1.87-3.33.93-6.32,2.29-8.98,4.09-2.66,1.8-4.81,4.19-6.45,7.18-1.64,2.98-2.46,6.27-2.46,9.88,0,6.15,2.17,11.2,6.52,15.15,4.34,3.95,10.56,5.93,18.65,5.93,4.9,0,9.49-.81,13.76-2.43,4.27-1.62,8.72-4.39,13.35-8.32.37,3.47,1.2,6.49,2.5,9.08h0Zm-3.54-32.38c0,5.5-.67,9.66-2.01,12.48-1.76,3.65-4.51,6.53-8.25,8.63-3.74,2.1-8.02,3.15-12.83,3.15s-8.54-1.11-11.06-3.33c-2.52-2.22-3.78-4.99-3.78-8.32,0-2.17.58-4.15,1.73-5.93,1.15-1.78,2.8-3.13,4.92-4.06,2.13-.92,5.75-1.76,10.89-2.5,9.06-1.29,15.85-2.87,20.38-4.71v4.58Z"/>
  <path class="cls-1" d="m355.61,157.02c5.01,3.98,12.31,5.96,21.88,5.96,5.78,0,10.96-1.01,15.53-3.02,4.58-2.01,8.08-4.85,10.5-8.53,2.43-3.67,3.64-7.59,3.64-11.75s-.99-7.81-2.98-10.68c-1.99-2.87-4.73-5.05-8.22-6.55-3.49-1.5-9.65-3.43-18.48-5.79-6.1-1.66-9.78-2.73-11.02-3.19-2.17-.88-3.77-1.99-4.78-3.33-1.02-1.29-1.53-2.75-1.53-4.37,0-2.54,1.22-4.76,3.67-6.66,2.45-1.89,6.54-2.84,12.27-2.84,4.85,0,8.61,1.06,11.27,3.19,2.66,2.13,4.26,5.09,4.82,8.88l12.2-1.66c-.79-4.76-2.22-8.56-4.3-11.41-2.08-2.84-5.3-5.1-9.67-6.76-4.37-1.66-9.44-2.5-15.22-2.5-3.84,0-7.43.5-10.78,1.49-3.35.99-6,2.21-7.94,3.64-2.59,1.85-4.63,4.17-6.14,6.97-1.5,2.8-2.25,5.84-2.25,9.12,0,3.61.91,6.9,2.74,9.88,1.83,2.98,4.51,5.32,8.04,7,3.54,1.69,9.88,3.69,19.03,6,6.79,1.71,11.05,3.12,12.76,4.23,2.45,1.62,3.67,3.84,3.67,6.66,0,3.14-1.39,5.88-4.16,8.22-2.77,2.33-7.03,3.5-12.76,3.5s-10.11-1.32-13.28-3.95c-3.17-2.63-5.1-6.42-5.79-11.37l-12.34,1.94c1.39,7.81,4.59,13.71,9.6,17.68Z"/>
  <path class="cls-1" d="m434.48,161.32v-40.28c0-5.78.69-10.31,2.08-13.59,1.39-3.28,3.71-5.88,6.97-7.8,3.26-1.92,6.74-2.88,10.44-2.88,4.95,0,8.77,1.42,11.47,4.26,2.7,2.84,4.06,7.38,4.06,13.62v46.66h12.48v-46.66c0-7.21-.87-12.71-2.6-16.5-1.73-3.79-4.61-6.76-8.63-8.91-4.02-2.15-8.76-3.22-14.21-3.22-8.87,0-16.22,3.37-22.05,10.12v-36.47h-12.48v101.65h12.48Z"/>
  <path class="cls-1" d="m242.08,86.81v38.2c0,6.7-.67,11.83-2.01,15.39-1.34,3.56-3.5,6.26-6.48,8.11-2.98,1.85-6.23,2.77-9.74,2.77-4.62,0-7.95-1.39-9.98-4.16-2.03-2.77-3.05-6.93-3.05-12.48v-47.84h-12.48v42.78c0,7.58-1.71,13.09-5.13,16.54-3.42,3.44-7.72,5.17-12.9,5.17-2.87,0-5.36-.67-7.49-2.01-2.13-1.34-3.59-3.11-4.4-5.3-.81-2.2-1.21-5.79-1.21-10.78v-46.39h-12.41v50.55c0,8.41,1.97,14.64,5.89,18.69,3.93,4.04,9.55,6.07,16.85,6.07,9.34,0,16.92-4.3,22.74-12.9,1.43,4.07,3.89,7.23,7.38,9.5,3.49,2.26,7.96,3.4,13.42,3.4,4.9,0,9.27-1.1,13.1-3.29,3.84-2.2,6.91-5.1,9.22-8.7v10.33h11.16v-73.63h-12.48Z"/>
</svg>